<svg width="414.999695" height="414.999634" viewBox="0 0 415 415" fill="none" xmlns="http://www.w3.org/2000/svg" xmlns:xlink="http://www.w3.org/1999/xlink">
	<desc>
			Created with Pixso.
	</desc>
	<g opacity="0.180000">
		<circle cx="4.068604" cy="410.931030" r="4.068624" transform="rotate(-90 4.0686 410.931)" fill="#312E2A"/>
		<circle cx="4.068604" cy="410.931030" r="3.568624" transform="rotate(-90 4.0686 410.931)" stroke="#000000"/>
		<circle cx="4.068604" cy="410.931030" r="3.568624" transform="rotate(-90 4.0686 410.931)" stroke="#000000"/>
		<circle cx="4.068604" cy="370.244751" r="4.068624" transform="rotate(-90 4.0686 370.245)" fill="#312E2A"/>
		<circle cx="4.068604" cy="370.244751" r="3.568624" transform="rotate(-90 4.0686 370.245)" stroke="#000000"/>
		<circle cx="4.068604" cy="370.244751" r="3.568624" transform="rotate(-90 4.0686 370.245)" stroke="#000000"/>
		<circle cx="4.068604" cy="329.558533" r="4.068624" transform="rotate(-90 4.0686 329.559)" fill="#312E2A"/>
		<circle cx="4.068604" cy="329.558533" r="3.568624" transform="rotate(-90 4.0686 329.559)" stroke="#000000"/>
		<circle cx="4.068604" cy="329.558533" r="3.568624" transform="rotate(-90 4.0686 329.559)" stroke="#000000"/>
		<circle cx="4.068604" cy="288.872253" r="4.068624" transform="rotate(-90 4.0686 288.872)" fill="#312E2A"/>
		<circle cx="4.068604" cy="288.872253" r="3.568624" transform="rotate(-90 4.0686 288.872)" stroke="#000000"/>
		<circle cx="4.068604" cy="288.872253" r="3.568624" transform="rotate(-90 4.0686 288.872)" stroke="#000000"/>
		<circle cx="4.068604" cy="248.186188" r="4.068624" transform="rotate(-90 4.0686 248.186)" fill="#312E2A"/>
		<circle cx="4.068604" cy="248.186188" r="3.568624" transform="rotate(-90 4.0686 248.186)" stroke="#000000"/>
		<circle cx="4.068604" cy="248.186188" r="3.568624" transform="rotate(-90 4.0686 248.186)" stroke="#000000"/>
		<circle cx="4.068604" cy="207.499786" r="4.068624" transform="rotate(-90 4.0686 207.5)" fill="#312E2A"/>
		<circle cx="4.068604" cy="207.499786" r="3.568624" transform="rotate(-90 4.0686 207.5)" stroke="#000000"/>
		<circle cx="4.068604" cy="207.499786" r="3.568624" transform="rotate(-90 4.0686 207.5)" stroke="#000000"/>
		<circle cx="4.068604" cy="166.813507" r="4.068624" transform="rotate(-90 4.0686 166.814)" fill="#312E2A"/>
		<circle cx="4.068604" cy="166.813507" r="3.568624" transform="rotate(-90 4.0686 166.814)" stroke="#000000"/>
		<circle cx="4.068604" cy="166.813507" r="3.568624" transform="rotate(-90 4.0686 166.814)" stroke="#000000"/>
		<circle cx="4.068604" cy="126.127167" r="4.068624" transform="rotate(-90 4.0686 126.127)" fill="#312E2A"/>
		<circle cx="4.068604" cy="126.127167" r="3.568624" transform="rotate(-90 4.0686 126.127)" stroke="#000000"/>
		<circle cx="4.068604" cy="126.127167" r="3.568624" transform="rotate(-90 4.0686 126.127)" stroke="#000000"/>
		<circle cx="4.068604" cy="85.441055" r="4.068624" transform="rotate(-90 4.0686 85.4411)" fill="#312E2A"/>
		<circle cx="4.068604" cy="85.441055" r="3.568624" transform="rotate(-90 4.0686 85.4411)" stroke="#000000"/>
		<circle cx="4.068604" cy="85.441055" r="3.568624" transform="rotate(-90 4.0686 85.4411)" stroke="#000000"/>
		<circle cx="4.068604" cy="44.754791" r="4.068624" transform="rotate(-90 4.0686 44.7548)" fill="#312E2A"/>
		<circle cx="4.068604" cy="44.754791" r="3.568624" transform="rotate(-90 4.0686 44.7548)" stroke="#000000"/>
		<circle cx="4.068604" cy="44.754791" r="3.568624" transform="rotate(-90 4.0686 44.7548)" stroke="#000000"/>
		<circle cx="4.068604" cy="4.068634" r="4.068624" transform="rotate(-90 4.0686 4.06863)" fill="#312E2A"/>
		<circle cx="4.068604" cy="4.068634" r="3.568624" transform="rotate(-90 4.0686 4.06863)" stroke="#000000"/>
		<circle cx="4.068604" cy="4.068634" r="3.568624" transform="rotate(-90 4.0686 4.06863)" stroke="#000000"/>
		<circle cx="44.754883" cy="410.931030" r="4.068624" transform="rotate(-90 44.7549 410.931)" fill="#312E2A"/>
		<circle cx="44.754883" cy="410.931030" r="3.568624" transform="rotate(-90 44.7549 410.931)" stroke="#000000"/>
		<circle cx="44.754883" cy="410.931030" r="3.568624" transform="rotate(-90 44.7549 410.931)" stroke="#000000"/>
		<circle cx="44.754883" cy="370.244751" r="4.068624" transform="rotate(-90 44.7549 370.245)" fill="#312E2A"/>
		<circle cx="44.754883" cy="370.244751" r="3.568624" transform="rotate(-90 44.7549 370.245)" stroke="#000000"/>
		<circle cx="44.754883" cy="370.244751" r="3.568624" transform="rotate(-90 44.7549 370.245)" stroke="#000000"/>
		<circle cx="44.754883" cy="329.558533" r="4.068624" transform="rotate(-90 44.7549 329.559)" fill="#312E2A"/>
		<circle cx="44.754883" cy="329.558533" r="3.568624" transform="rotate(-90 44.7549 329.559)" stroke="#000000"/>
		<circle cx="44.754883" cy="329.558533" r="3.568624" transform="rotate(-90 44.7549 329.559)" stroke="#000000"/>
		<circle cx="44.754883" cy="288.872253" r="4.068624" transform="rotate(-90 44.7549 288.872)" fill="#312E2A"/>
		<circle cx="44.754883" cy="288.872253" r="3.568624" transform="rotate(-90 44.7549 288.872)" stroke="#000000"/>
		<circle cx="44.754883" cy="288.872253" r="3.568624" transform="rotate(-90 44.7549 288.872)" stroke="#000000"/>
		<circle cx="44.754883" cy="248.186188" r="4.068624" transform="rotate(-90 44.7549 248.186)" fill="#312E2A"/>
		<circle cx="44.754883" cy="248.186188" r="3.568624" transform="rotate(-90 44.7549 248.186)" stroke="#000000"/>
		<circle cx="44.754883" cy="248.186188" r="3.568624" transform="rotate(-90 44.7549 248.186)" stroke="#000000"/>
		<circle cx="44.754883" cy="207.499786" r="4.068624" transform="rotate(-90 44.7549 207.5)" fill="#312E2A"/>
		<circle cx="44.754883" cy="207.499786" r="3.568624" transform="rotate(-90 44.7549 207.5)" stroke="#000000"/>
		<circle cx="44.754883" cy="207.499786" r="3.568624" transform="rotate(-90 44.7549 207.5)" stroke="#000000"/>
		<circle cx="44.754883" cy="166.813507" r="4.068624" transform="rotate(-90 44.7549 166.814)" fill="#312E2A"/>
		<circle cx="44.754883" cy="166.813507" r="3.568624" transform="rotate(-90 44.7549 166.814)" stroke="#000000"/>
		<circle cx="44.754883" cy="166.813507" r="3.568624" transform="rotate(-90 44.7549 166.814)" stroke="#000000"/>
		<circle cx="44.754883" cy="126.127167" r="4.068624" transform="rotate(-90 44.7549 126.127)" fill="#312E2A"/>
		<circle cx="44.754883" cy="126.127167" r="3.568624" transform="rotate(-90 44.7549 126.127)" stroke="#000000"/>
		<circle cx="44.754883" cy="126.127167" r="3.568624" transform="rotate(-90 44.7549 126.127)" stroke="#000000"/>
		<circle cx="44.754883" cy="85.441055" r="4.068624" transform="rotate(-90 44.7549 85.4411)" fill="#312E2A"/>
		<circle cx="44.754883" cy="85.441055" r="3.568624" transform="rotate(-90 44.7549 85.4411)" stroke="#000000"/>
		<circle cx="44.754883" cy="85.441055" r="3.568624" transform="rotate(-90 44.7549 85.4411)" stroke="#000000"/>
		<circle cx="44.754883" cy="44.754791" r="4.068624" transform="rotate(-90 44.7549 44.7548)" fill="#312E2A"/>
		<circle cx="44.754883" cy="44.754791" r="3.568624" transform="rotate(-90 44.7549 44.7548)" stroke="#000000"/>
		<circle cx="44.754883" cy="44.754791" r="3.568624" transform="rotate(-90 44.7549 44.7548)" stroke="#000000"/>
		<circle cx="44.754883" cy="4.068634" r="4.068624" transform="rotate(-90 44.7549 4.06863)" fill="#312E2A"/>
		<circle cx="44.754883" cy="4.068634" r="3.568624" transform="rotate(-90 44.7549 4.06863)" stroke="#000000"/>
		<circle cx="44.754883" cy="4.068634" r="3.568624" transform="rotate(-90 44.7549 4.06863)" stroke="#000000"/>
		<circle cx="85.441101" cy="410.931030" r="4.068624" transform="rotate(-90 85.4411 410.931)" fill="#312E2A"/>
		<circle cx="85.441101" cy="410.931030" r="3.568624" transform="rotate(-90 85.4411 410.931)" stroke="#000000"/>
		<circle cx="85.441101" cy="410.931030" r="3.568624" transform="rotate(-90 85.4411 410.931)" stroke="#000000"/>
		<circle cx="85.441101" cy="370.244751" r="4.068624" transform="rotate(-90 85.4411 370.245)" fill="#312E2A"/>
		<circle cx="85.441101" cy="370.244751" r="3.568624" transform="rotate(-90 85.4411 370.245)" stroke="#000000"/>
		<circle cx="85.441101" cy="370.244751" r="3.568624" transform="rotate(-90 85.4411 370.245)" stroke="#000000"/>
		<circle cx="85.441101" cy="329.558533" r="4.068624" transform="rotate(-90 85.4411 329.559)" fill="#312E2A"/>
		<circle cx="85.441101" cy="329.558533" r="3.568624" transform="rotate(-90 85.4411 329.559)" stroke="#000000"/>
		<circle cx="85.441101" cy="329.558533" r="3.568624" transform="rotate(-90 85.4411 329.559)" stroke="#000000"/>
		<circle cx="85.441101" cy="288.872253" r="4.068624" transform="rotate(-90 85.4411 288.872)" fill="#312E2A"/>
		<circle cx="85.441101" cy="288.872253" r="3.568624" transform="rotate(-90 85.4411 288.872)" stroke="#000000"/>
		<circle cx="85.441101" cy="288.872253" r="3.568624" transform="rotate(-90 85.4411 288.872)" stroke="#000000"/>
		<circle cx="85.441101" cy="248.186188" r="4.068624" transform="rotate(-90 85.4411 248.186)" fill="#312E2A"/>
		<circle cx="85.441101" cy="248.186188" r="3.568624" transform="rotate(-90 85.4411 248.186)" stroke="#000000"/>
		<circle cx="85.441101" cy="248.186188" r="3.568624" transform="rotate(-90 85.4411 248.186)" stroke="#000000"/>
		<circle cx="85.441101" cy="207.499786" r="4.068624" transform="rotate(-90 85.4411 207.5)" fill="#312E2A"/>
		<circle cx="85.441101" cy="207.499786" r="3.568624" transform="rotate(-90 85.4411 207.5)" stroke="#000000"/>
		<circle cx="85.441101" cy="207.499786" r="3.568624" transform="rotate(-90 85.4411 207.5)" stroke="#000000"/>
		<circle cx="85.441101" cy="166.813507" r="4.068624" transform="rotate(-90 85.4411 166.814)" fill="#312E2A"/>
		<circle cx="85.441101" cy="166.813507" r="3.568624" transform="rotate(-90 85.4411 166.814)" stroke="#000000"/>
		<circle cx="85.441101" cy="166.813507" r="3.568624" transform="rotate(-90 85.4411 166.814)" stroke="#000000"/>
		<circle cx="85.441101" cy="126.127167" r="4.068624" transform="rotate(-90 85.4411 126.127)" fill="#312E2A"/>
		<circle cx="85.441101" cy="126.127167" r="3.568624" transform="rotate(-90 85.4411 126.127)" stroke="#000000"/>
		<circle cx="85.441101" cy="126.127167" r="3.568624" transform="rotate(-90 85.4411 126.127)" stroke="#000000"/>
		<circle cx="85.441101" cy="85.441055" r="4.068624" transform="rotate(-90 85.4411 85.4411)" fill="#312E2A"/>
		<circle cx="85.441101" cy="85.441055" r="3.568624" transform="rotate(-90 85.4411 85.4411)" stroke="#000000"/>
		<circle cx="85.441101" cy="85.441055" r="3.568624" transform="rotate(-90 85.4411 85.4411)" stroke="#000000"/>
		<circle cx="85.441101" cy="44.754791" r="4.068624" transform="rotate(-90 85.4411 44.7548)" fill="#312E2A"/>
		<circle cx="85.441101" cy="44.754791" r="3.568624" transform="rotate(-90 85.4411 44.7548)" stroke="#000000"/>
		<circle cx="85.441101" cy="44.754791" r="3.568624" transform="rotate(-90 85.4411 44.7548)" stroke="#000000"/>
		<circle cx="85.441101" cy="4.068634" r="4.068624" transform="rotate(-90 85.4411 4.06863)" fill="#312E2A"/>
		<circle cx="85.441101" cy="4.068634" r="3.568624" transform="rotate(-90 85.4411 4.06863)" stroke="#000000"/>
		<circle cx="85.441101" cy="4.068634" r="3.568624" transform="rotate(-90 85.4411 4.06863)" stroke="#000000"/>
		<circle cx="126.127380" cy="410.931030" r="4.068624" transform="rotate(-90 126.127 410.931)" fill="#312E2A"/>
		<circle cx="126.127380" cy="410.931030" r="3.568624" transform="rotate(-90 126.127 410.931)" stroke="#000000"/>
		<circle cx="126.127380" cy="410.931030" r="3.568624" transform="rotate(-90 126.127 410.931)" stroke="#000000"/>
		<circle cx="126.127380" cy="370.244751" r="4.068624" transform="rotate(-90 126.127 370.245)" fill="#312E2A"/>
		<circle cx="126.127380" cy="370.244751" r="3.568624" transform="rotate(-90 126.127 370.245)" stroke="#000000"/>
		<circle cx="126.127380" cy="370.244751" r="3.568624" transform="rotate(-90 126.127 370.245)" stroke="#000000"/>
		<circle cx="126.127380" cy="329.558533" r="4.068624" transform="rotate(-90 126.127 329.559)" fill="#312E2A"/>
		<circle cx="126.127380" cy="329.558533" r="3.568624" transform="rotate(-90 126.127 329.559)" stroke="#000000"/>
		<circle cx="126.127380" cy="329.558533" r="3.568624" transform="rotate(-90 126.127 329.559)" stroke="#000000"/>
		<circle cx="126.127380" cy="288.872253" r="4.068624" transform="rotate(-90 126.127 288.872)" fill="#312E2A"/>
		<circle cx="126.127380" cy="288.872253" r="3.568624" transform="rotate(-90 126.127 288.872)" stroke="#000000"/>
		<circle cx="126.127380" cy="288.872253" r="3.568624" transform="rotate(-90 126.127 288.872)" stroke="#000000"/>
		<circle cx="126.127380" cy="248.186188" r="4.068624" transform="rotate(-90 126.127 248.186)" fill="#312E2A"/>
		<circle cx="126.127380" cy="248.186188" r="3.568624" transform="rotate(-90 126.127 248.186)" stroke="#000000"/>
		<circle cx="126.127380" cy="248.186188" r="3.568624" transform="rotate(-90 126.127 248.186)" stroke="#000000"/>
		<circle cx="126.127380" cy="207.499786" r="4.068624" transform="rotate(-90 126.127 207.5)" fill="#312E2A"/>
		<circle cx="126.127380" cy="207.499786" r="3.568624" transform="rotate(-90 126.127 207.5)" stroke="#000000"/>
		<circle cx="126.127380" cy="207.499786" r="3.568624" transform="rotate(-90 126.127 207.5)" stroke="#000000"/>
		<circle cx="126.127380" cy="166.813507" r="4.068624" transform="rotate(-90 126.127 166.814)" fill="#312E2A"/>
		<circle cx="126.127380" cy="166.813507" r="3.568624" transform="rotate(-90 126.127 166.814)" stroke="#000000"/>
		<circle cx="126.127380" cy="166.813507" r="3.568624" transform="rotate(-90 126.127 166.814)" stroke="#000000"/>
		<circle cx="126.127380" cy="126.127167" r="4.068624" transform="rotate(-90 126.127 126.127)" fill="#312E2A"/>
		<circle cx="126.127380" cy="126.127167" r="3.568624" transform="rotate(-90 126.127 126.127)" stroke="#000000"/>
		<circle cx="126.127380" cy="126.127167" r="3.568624" transform="rotate(-90 126.127 126.127)" stroke="#000000"/>
		<circle cx="126.127380" cy="85.441055" r="4.068624" transform="rotate(-90 126.127 85.4411)" fill="#312E2A"/>
		<circle cx="126.127380" cy="85.441055" r="3.568624" transform="rotate(-90 126.127 85.4411)" stroke="#000000"/>
		<circle cx="126.127380" cy="85.441055" r="3.568624" transform="rotate(-90 126.127 85.4411)" stroke="#000000"/>
		<circle cx="126.127380" cy="44.754791" r="4.068624" transform="rotate(-90 126.127 44.7548)" fill="#312E2A"/>
		<circle cx="126.127380" cy="44.754791" r="3.568624" transform="rotate(-90 126.127 44.7548)" stroke="#000000"/>
		<circle cx="126.127380" cy="44.754791" r="3.568624" transform="rotate(-90 126.127 44.7548)" stroke="#000000"/>
		<circle cx="126.127380" cy="4.068634" r="4.068624" transform="rotate(-90 126.127 4.06863)" fill="#312E2A"/>
		<circle cx="126.127380" cy="4.068634" r="3.568624" transform="rotate(-90 126.127 4.06863)" stroke="#000000"/>
		<circle cx="126.127380" cy="4.068634" r="3.568624" transform="rotate(-90 126.127 4.06863)" stroke="#000000"/>
		<circle cx="166.813660" cy="410.931030" r="4.068624" transform="rotate(-90 166.814 410.931)" fill="#312E2A"/>
		<circle cx="166.813660" cy="410.931030" r="3.568624" transform="rotate(-90 166.814 410.931)" stroke="#000000"/>
		<circle cx="166.813660" cy="410.931030" r="3.568624" transform="rotate(-90 166.814 410.931)" stroke="#000000"/>
		<circle cx="166.813660" cy="370.244751" r="4.068624" transform="rotate(-90 166.814 370.245)" fill="#312E2A"/>
		<circle cx="166.813660" cy="370.244751" r="3.568624" transform="rotate(-90 166.814 370.245)" stroke="#000000"/>
		<circle cx="166.813660" cy="370.244751" r="3.568624" transform="rotate(-90 166.814 370.245)" stroke="#000000"/>
		<circle cx="166.813660" cy="329.558533" r="4.068624" transform="rotate(-90 166.814 329.559)" fill="#312E2A"/>
		<circle cx="166.813660" cy="329.558533" r="3.568624" transform="rotate(-90 166.814 329.559)" stroke="#000000"/>
		<circle cx="166.813660" cy="329.558533" r="3.568624" transform="rotate(-90 166.814 329.559)" stroke="#000000"/>
		<circle cx="166.813660" cy="288.872253" r="4.068624" transform="rotate(-90 166.814 288.872)" fill="#312E2A"/>
		<circle cx="166.813660" cy="288.872253" r="3.568624" transform="rotate(-90 166.814 288.872)" stroke="#000000"/>
		<circle cx="166.813660" cy="288.872253" r="3.568624" transform="rotate(-90 166.814 288.872)" stroke="#000000"/>
		<circle cx="166.813660" cy="248.186188" r="4.068624" transform="rotate(-90 166.814 248.186)" fill="#312E2A"/>
		<circle cx="166.813660" cy="248.186188" r="3.568624" transform="rotate(-90 166.814 248.186)" stroke="#000000"/>
		<circle cx="166.813660" cy="248.186188" r="3.568624" transform="rotate(-90 166.814 248.186)" stroke="#000000"/>
		<circle cx="166.813660" cy="207.499786" r="4.068624" transform="rotate(-90 166.814 207.5)" fill="#312E2A"/>
		<circle cx="166.813660" cy="207.499786" r="3.568624" transform="rotate(-90 166.814 207.5)" stroke="#000000"/>
		<circle cx="166.813660" cy="207.499786" r="3.568624" transform="rotate(-90 166.814 207.5)" stroke="#000000"/>
		<circle cx="166.813660" cy="166.813507" r="4.068624" transform="rotate(-90 166.814 166.814)" fill="#312E2A"/>
		<circle cx="166.813660" cy="166.813507" r="3.568624" transform="rotate(-90 166.814 166.814)" stroke="#000000"/>
		<circle cx="166.813660" cy="166.813507" r="3.568624" transform="rotate(-90 166.814 166.814)" stroke="#000000"/>
		<circle cx="166.813660" cy="126.127167" r="4.068624" transform="rotate(-90 166.814 126.127)" fill="#312E2A"/>
		<circle cx="166.813660" cy="126.127167" r="3.568624" transform="rotate(-90 166.814 126.127)" stroke="#000000"/>
		<circle cx="166.813660" cy="126.127167" r="3.568624" transform="rotate(-90 166.814 126.127)" stroke="#000000"/>
		<circle cx="166.813660" cy="85.441055" r="4.068624" transform="rotate(-90 166.814 85.4411)" fill="#312E2A"/>
		<circle cx="166.813660" cy="85.441055" r="3.568624" transform="rotate(-90 166.814 85.4411)" stroke="#000000"/>
		<circle cx="166.813660" cy="85.441055" r="3.568624" transform="rotate(-90 166.814 85.4411)" stroke="#000000"/>
		<circle cx="166.813660" cy="44.754791" r="4.068624" transform="rotate(-90 166.814 44.7548)" fill="#312E2A"/>
		<circle cx="166.813660" cy="44.754791" r="3.568624" transform="rotate(-90 166.814 44.7548)" stroke="#000000"/>
		<circle cx="166.813660" cy="44.754791" r="3.568624" transform="rotate(-90 166.814 44.7548)" stroke="#000000"/>
		<circle cx="166.813660" cy="4.068634" r="4.068624" transform="rotate(-90 166.814 4.06863)" fill="#312E2A"/>
		<circle cx="166.813660" cy="4.068634" r="3.568624" transform="rotate(-90 166.814 4.06863)" stroke="#000000"/>
		<circle cx="166.813660" cy="4.068634" r="3.568624" transform="rotate(-90 166.814 4.06863)" stroke="#000000"/>
		<circle cx="207.499939" cy="410.931030" r="4.068624" transform="rotate(-90 207.5 410.931)" fill="#312E2A"/>
		<circle cx="207.499939" cy="410.931030" r="3.568624" transform="rotate(-90 207.5 410.931)" stroke="#000000"/>
		<circle cx="207.499939" cy="410.931030" r="3.568624" transform="rotate(-90 207.5 410.931)" stroke="#000000"/>
		<circle cx="207.499939" cy="370.244751" r="4.068624" transform="rotate(-90 207.5 370.245)" fill="#312E2A"/>
		<circle cx="207.499939" cy="370.244751" r="3.568624" transform="rotate(-90 207.5 370.245)" stroke="#000000"/>
		<circle cx="207.499939" cy="370.244751" r="3.568624" transform="rotate(-90 207.5 370.245)" stroke="#000000"/>
		<circle cx="207.499939" cy="329.558533" r="4.068624" transform="rotate(-90 207.5 329.559)" fill="#312E2A"/>
		<circle cx="207.499939" cy="329.558533" r="3.568624" transform="rotate(-90 207.5 329.559)" stroke="#000000"/>
		<circle cx="207.499939" cy="329.558533" r="3.568624" transform="rotate(-90 207.5 329.559)" stroke="#000000"/>
		<circle cx="207.499939" cy="288.872253" r="4.068624" transform="rotate(-90 207.5 288.872)" fill="#312E2A"/>
		<circle cx="207.499939" cy="288.872253" r="3.568624" transform="rotate(-90 207.5 288.872)" stroke="#000000"/>
		<circle cx="207.499939" cy="288.872253" r="3.568624" transform="rotate(-90 207.5 288.872)" stroke="#000000"/>
		<circle cx="207.499939" cy="248.186188" r="4.068624" transform="rotate(-90 207.5 248.186)" fill="#312E2A"/>
		<circle cx="207.499939" cy="248.186188" r="3.568624" transform="rotate(-90 207.5 248.186)" stroke="#000000"/>
		<circle cx="207.499939" cy="248.186188" r="3.568624" transform="rotate(-90 207.5 248.186)" stroke="#000000"/>
		<circle cx="207.499939" cy="207.499786" r="4.068624" transform="rotate(-90 207.5 207.5)" fill="#312E2A"/>
		<circle cx="207.499939" cy="207.499786" r="3.568624" transform="rotate(-90 207.5 207.5)" stroke="#000000"/>
		<circle cx="207.499939" cy="207.499786" r="3.568624" transform="rotate(-90 207.5 207.5)" stroke="#000000"/>
		<circle cx="207.499939" cy="166.813507" r="4.068624" transform="rotate(-90 207.5 166.814)" fill="#312E2A"/>
		<circle cx="207.499939" cy="166.813507" r="3.568624" transform="rotate(-90 207.5 166.814)" stroke="#000000"/>
		<circle cx="207.499939" cy="166.813507" r="3.568624" transform="rotate(-90 207.5 166.814)" stroke="#000000"/>
		<circle cx="207.499939" cy="126.127167" r="4.068624" transform="rotate(-90 207.5 126.127)" fill="#312E2A"/>
		<circle cx="207.499939" cy="126.127167" r="3.568624" transform="rotate(-90 207.5 126.127)" stroke="#000000"/>
		<circle cx="207.499939" cy="126.127167" r="3.568624" transform="rotate(-90 207.5 126.127)" stroke="#000000"/>
		<circle cx="207.499939" cy="85.441055" r="4.068624" transform="rotate(-90 207.5 85.4411)" fill="#312E2A"/>
		<circle cx="207.499939" cy="85.441055" r="3.568624" transform="rotate(-90 207.5 85.4411)" stroke="#000000"/>
		<circle cx="207.499939" cy="85.441055" r="3.568624" transform="rotate(-90 207.5 85.4411)" stroke="#000000"/>
		<circle cx="207.499939" cy="44.754791" r="4.068624" transform="rotate(-90 207.5 44.7548)" fill="#312E2A"/>
		<circle cx="207.499939" cy="44.754791" r="3.568624" transform="rotate(-90 207.5 44.7548)" stroke="#000000"/>
		<circle cx="207.499939" cy="44.754791" r="3.568624" transform="rotate(-90 207.5 44.7548)" stroke="#000000"/>
		<circle cx="207.499939" cy="4.068634" r="4.068624" transform="rotate(-90 207.5 4.06863)" fill="#312E2A"/>
		<circle cx="207.499939" cy="4.068634" r="3.568624" transform="rotate(-90 207.5 4.06863)" stroke="#000000"/>
		<circle cx="207.499939" cy="4.068634" r="3.568624" transform="rotate(-90 207.5 4.06863)" stroke="#000000"/>
		<circle cx="248.186218" cy="410.931030" r="4.068624" transform="rotate(-90 248.186 410.931)" fill="#312E2A"/>
		<circle cx="248.186218" cy="410.931030" r="3.568624" transform="rotate(-90 248.186 410.931)" stroke="#000000"/>
		<circle cx="248.186218" cy="410.931030" r="3.568624" transform="rotate(-90 248.186 410.931)" stroke="#000000"/>
		<circle cx="248.186218" cy="370.244751" r="4.068624" transform="rotate(-90 248.186 370.245)" fill="#312E2A"/>
		<circle cx="248.186218" cy="370.244751" r="3.568624" transform="rotate(-90 248.186 370.245)" stroke="#000000"/>
		<circle cx="248.186218" cy="370.244751" r="3.568624" transform="rotate(-90 248.186 370.245)" stroke="#000000"/>
		<circle cx="248.186218" cy="329.558533" r="4.068624" transform="rotate(-90 248.186 329.559)" fill="#312E2A"/>
		<circle cx="248.186218" cy="329.558533" r="3.568624" transform="rotate(-90 248.186 329.559)" stroke="#000000"/>
		<circle cx="248.186218" cy="329.558533" r="3.568624" transform="rotate(-90 248.186 329.559)" stroke="#000000"/>
		<circle cx="248.186218" cy="288.872253" r="4.068624" transform="rotate(-90 248.186 288.872)" fill="#312E2A"/>
		<circle cx="248.186218" cy="288.872253" r="3.568624" transform="rotate(-90 248.186 288.872)" stroke="#000000"/>
		<circle cx="248.186218" cy="288.872253" r="3.568624" transform="rotate(-90 248.186 288.872)" stroke="#000000"/>
		<circle cx="248.186218" cy="248.186188" r="4.068624" transform="rotate(-90 248.186 248.186)" fill="#312E2A"/>
		<circle cx="248.186218" cy="248.186188" r="3.568624" transform="rotate(-90 248.186 248.186)" stroke="#000000"/>
		<circle cx="248.186218" cy="248.186188" r="3.568624" transform="rotate(-90 248.186 248.186)" stroke="#000000"/>
		<circle cx="248.186218" cy="207.499786" r="4.068624" transform="rotate(-90 248.186 207.5)" fill="#312E2A"/>
		<circle cx="248.186218" cy="207.499786" r="3.568624" transform="rotate(-90 248.186 207.5)" stroke="#000000"/>
		<circle cx="248.186218" cy="207.499786" r="3.568624" transform="rotate(-90 248.186 207.5)" stroke="#000000"/>
		<circle cx="248.186218" cy="166.813507" r="4.068624" transform="rotate(-90 248.186 166.814)" fill="#312E2A"/>
		<circle cx="248.186218" cy="166.813507" r="3.568624" transform="rotate(-90 248.186 166.814)" stroke="#000000"/>
		<circle cx="248.186218" cy="166.813507" r="3.568624" transform="rotate(-90 248.186 166.814)" stroke="#000000"/>
		<circle cx="248.186218" cy="126.127167" r="4.068624" transform="rotate(-90 248.186 126.127)" fill="#312E2A"/>
		<circle cx="248.186218" cy="126.127167" r="3.568624" transform="rotate(-90 248.186 126.127)" stroke="#000000"/>
		<circle cx="248.186218" cy="126.127167" r="3.568624" transform="rotate(-90 248.186 126.127)" stroke="#000000"/>
		<circle cx="248.186218" cy="85.441055" r="4.068624" transform="rotate(-90 248.186 85.4411)" fill="#312E2A"/>
		<circle cx="248.186218" cy="85.441055" r="3.568624" transform="rotate(-90 248.186 85.4411)" stroke="#000000"/>
		<circle cx="248.186218" cy="85.441055" r="3.568624" transform="rotate(-90 248.186 85.4411)" stroke="#000000"/>
		<circle cx="248.186218" cy="44.754791" r="4.068624" transform="rotate(-90 248.186 44.7548)" fill="#312E2A"/>
		<circle cx="248.186218" cy="44.754791" r="3.568624" transform="rotate(-90 248.186 44.7548)" stroke="#000000"/>
		<circle cx="248.186218" cy="44.754791" r="3.568624" transform="rotate(-90 248.186 44.7548)" stroke="#000000"/>
		<circle cx="248.186218" cy="4.068634" r="4.068624" transform="rotate(-90 248.186 4.06863)" fill="#312E2A"/>
		<circle cx="248.186218" cy="4.068634" r="3.568624" transform="rotate(-90 248.186 4.06863)" stroke="#000000"/>
		<circle cx="248.186218" cy="4.068634" r="3.568624" transform="rotate(-90 248.186 4.06863)" stroke="#000000"/>
		<circle cx="288.872253" cy="410.931030" r="4.068624" transform="rotate(-90 288.872 410.931)" fill="#312E2A"/>
		<circle cx="288.872253" cy="410.931030" r="3.568624" transform="rotate(-90 288.872 410.931)" stroke="#000000"/>
		<circle cx="288.872253" cy="410.931030" r="3.568624" transform="rotate(-90 288.872 410.931)" stroke="#000000"/>
		<circle cx="288.872253" cy="370.244751" r="4.068624" transform="rotate(-90 288.872 370.245)" fill="#312E2A"/>
		<circle cx="288.872253" cy="370.244751" r="3.568624" transform="rotate(-90 288.872 370.245)" stroke="#000000"/>
		<circle cx="288.872253" cy="370.244751" r="3.568624" transform="rotate(-90 288.872 370.245)" stroke="#000000"/>
		<circle cx="288.872253" cy="329.558533" r="4.068624" transform="rotate(-90 288.872 329.559)" fill="#312E2A"/>
		<circle cx="288.872253" cy="329.558533" r="3.568624" transform="rotate(-90 288.872 329.559)" stroke="#000000"/>
		<circle cx="288.872253" cy="329.558533" r="3.568624" transform="rotate(-90 288.872 329.559)" stroke="#000000"/>
		<circle cx="288.872253" cy="288.872253" r="4.068624" transform="rotate(-90 288.872 288.872)" fill="#312E2A"/>
		<circle cx="288.872253" cy="288.872253" r="3.568624" transform="rotate(-90 288.872 288.872)" stroke="#000000"/>
		<circle cx="288.872253" cy="288.872253" r="3.568624" transform="rotate(-90 288.872 288.872)" stroke="#000000"/>
		<circle cx="288.872253" cy="248.186188" r="4.068624" transform="rotate(-90 288.872 248.186)" fill="#312E2A"/>
		<circle cx="288.872253" cy="248.186188" r="3.568624" transform="rotate(-90 288.872 248.186)" stroke="#000000"/>
		<circle cx="288.872253" cy="248.186188" r="3.568624" transform="rotate(-90 288.872 248.186)" stroke="#000000"/>
		<circle cx="288.872253" cy="207.499786" r="4.068624" transform="rotate(-90 288.872 207.5)" fill="#312E2A"/>
		<circle cx="288.872253" cy="207.499786" r="3.568624" transform="rotate(-90 288.872 207.5)" stroke="#000000"/>
		<circle cx="288.872253" cy="207.499786" r="3.568624" transform="rotate(-90 288.872 207.5)" stroke="#000000"/>
		<circle cx="288.872253" cy="166.813507" r="4.068624" transform="rotate(-90 288.872 166.814)" fill="#312E2A"/>
		<circle cx="288.872253" cy="166.813507" r="3.568624" transform="rotate(-90 288.872 166.814)" stroke="#000000"/>
		<circle cx="288.872253" cy="166.813507" r="3.568624" transform="rotate(-90 288.872 166.814)" stroke="#000000"/>
		<circle cx="288.872253" cy="126.127167" r="4.068624" transform="rotate(-90 288.872 126.127)" fill="#312E2A"/>
		<circle cx="288.872253" cy="126.127167" r="3.568624" transform="rotate(-90 288.872 126.127)" stroke="#000000"/>
		<circle cx="288.872253" cy="126.127167" r="3.568624" transform="rotate(-90 288.872 126.127)" stroke="#000000"/>
		<circle cx="288.872253" cy="85.441055" r="4.068624" transform="rotate(-90 288.872 85.4411)" fill="#312E2A"/>
		<circle cx="288.872253" cy="85.441055" r="3.568624" transform="rotate(-90 288.872 85.4411)" stroke="#000000"/>
		<circle cx="288.872253" cy="85.441055" r="3.568624" transform="rotate(-90 288.872 85.4411)" stroke="#000000"/>
		<circle cx="288.872253" cy="44.754791" r="4.068624" transform="rotate(-90 288.872 44.7548)" fill="#312E2A"/>
		<circle cx="288.872253" cy="44.754791" r="3.568624" transform="rotate(-90 288.872 44.7548)" stroke="#000000"/>
		<circle cx="288.872253" cy="44.754791" r="3.568624" transform="rotate(-90 288.872 44.7548)" stroke="#000000"/>
		<circle cx="288.872253" cy="4.068634" r="4.068624" transform="rotate(-90 288.872 4.06863)" fill="#312E2A"/>
		<circle cx="288.872253" cy="4.068634" r="3.568624" transform="rotate(-90 288.872 4.06863)" stroke="#000000"/>
		<circle cx="288.872253" cy="4.068634" r="3.568624" transform="rotate(-90 288.872 4.06863)" stroke="#000000"/>
		<circle cx="329.558533" cy="410.931030" r="4.068624" transform="rotate(-90 329.559 410.931)" fill="#312E2A"/>
		<circle cx="329.558533" cy="410.931030" r="3.568624" transform="rotate(-90 329.559 410.931)" stroke="#000000"/>
		<circle cx="329.558533" cy="410.931030" r="3.568624" transform="rotate(-90 329.559 410.931)" stroke="#000000"/>
		<circle cx="329.558533" cy="370.244751" r="4.068624" transform="rotate(-90 329.559 370.245)" fill="#312E2A"/>
		<circle cx="329.558533" cy="370.244751" r="3.568624" transform="rotate(-90 329.559 370.245)" stroke="#000000"/>
		<circle cx="329.558533" cy="370.244751" r="3.568624" transform="rotate(-90 329.559 370.245)" stroke="#000000"/>
		<circle cx="329.558533" cy="329.558533" r="4.068624" transform="rotate(-90 329.559 329.559)" fill="#312E2A"/>
		<circle cx="329.558533" cy="329.558533" r="3.568624" transform="rotate(-90 329.559 329.559)" stroke="#000000"/>
		<circle cx="329.558533" cy="329.558533" r="3.568624" transform="rotate(-90 329.559 329.559)" stroke="#000000"/>
		<circle cx="329.558533" cy="288.872253" r="4.068624" transform="rotate(-90 329.559 288.872)" fill="#312E2A"/>
		<circle cx="329.558533" cy="288.872253" r="3.568624" transform="rotate(-90 329.559 288.872)" stroke="#000000"/>
		<circle cx="329.558533" cy="288.872253" r="3.568624" transform="rotate(-90 329.559 288.872)" stroke="#000000"/>
		<circle cx="329.558533" cy="248.186188" r="4.068624" transform="rotate(-90 329.559 248.186)" fill="#312E2A"/>
		<circle cx="329.558533" cy="248.186188" r="3.568624" transform="rotate(-90 329.559 248.186)" stroke="#000000"/>
		<circle cx="329.558533" cy="248.186188" r="3.568624" transform="rotate(-90 329.559 248.186)" stroke="#000000"/>
		<circle cx="329.558533" cy="207.499786" r="4.068624" transform="rotate(-90 329.559 207.5)" fill="#312E2A"/>
		<circle cx="329.558533" cy="207.499786" r="3.568624" transform="rotate(-90 329.559 207.5)" stroke="#000000"/>
		<circle cx="329.558533" cy="207.499786" r="3.568624" transform="rotate(-90 329.559 207.5)" stroke="#000000"/>
		<circle cx="329.558533" cy="166.813507" r="4.068624" transform="rotate(-90 329.559 166.814)" fill="#312E2A"/>
		<circle cx="329.558533" cy="166.813507" r="3.568624" transform="rotate(-90 329.559 166.814)" stroke="#000000"/>
		<circle cx="329.558533" cy="166.813507" r="3.568624" transform="rotate(-90 329.559 166.814)" stroke="#000000"/>
		<circle cx="329.558533" cy="126.127167" r="4.068624" transform="rotate(-90 329.559 126.127)" fill="#312E2A"/>
		<circle cx="329.558533" cy="126.127167" r="3.568624" transform="rotate(-90 329.559 126.127)" stroke="#000000"/>
		<circle cx="329.558533" cy="126.127167" r="3.568624" transform="rotate(-90 329.559 126.127)" stroke="#000000"/>
		<circle cx="329.558533" cy="85.441055" r="4.068624" transform="rotate(-90 329.559 85.4411)" fill="#312E2A"/>
		<circle cx="329.558533" cy="85.441055" r="3.568624" transform="rotate(-90 329.559 85.4411)" stroke="#000000"/>
		<circle cx="329.558533" cy="85.441055" r="3.568624" transform="rotate(-90 329.559 85.4411)" stroke="#000000"/>
		<circle cx="329.558533" cy="44.754791" r="4.068624" transform="rotate(-90 329.559 44.7548)" fill="#312E2A"/>
		<circle cx="329.558533" cy="44.754791" r="3.568624" transform="rotate(-90 329.559 44.7548)" stroke="#000000"/>
		<circle cx="329.558533" cy="44.754791" r="3.568624" transform="rotate(-90 329.559 44.7548)" stroke="#000000"/>
		<circle cx="329.558533" cy="4.068634" r="4.068624" transform="rotate(-90 329.559 4.06863)" fill="#312E2A"/>
		<circle cx="329.558533" cy="4.068634" r="3.568624" transform="rotate(-90 329.559 4.06863)" stroke="#000000"/>
		<circle cx="329.558533" cy="4.068634" r="3.568624" transform="rotate(-90 329.559 4.06863)" stroke="#000000"/>
		<circle cx="370.244812" cy="410.931030" r="4.068624" transform="rotate(-90 370.245 410.931)" fill="#312E2A"/>
		<circle cx="370.244812" cy="410.931030" r="3.568624" transform="rotate(-90 370.245 410.931)" stroke="#000000"/>
		<circle cx="370.244812" cy="410.931030" r="3.568624" transform="rotate(-90 370.245 410.931)" stroke="#000000"/>
		<circle cx="370.244812" cy="370.244751" r="4.068624" transform="rotate(-90 370.245 370.245)" fill="#312E2A"/>
		<circle cx="370.244812" cy="370.244751" r="3.568624" transform="rotate(-90 370.245 370.245)" stroke="#000000"/>
		<circle cx="370.244812" cy="370.244751" r="3.568624" transform="rotate(-90 370.245 370.245)" stroke="#000000"/>
		<circle cx="370.244812" cy="329.558533" r="4.068624" transform="rotate(-90 370.245 329.559)" fill="#312E2A"/>
		<circle cx="370.244812" cy="329.558533" r="3.568624" transform="rotate(-90 370.245 329.559)" stroke="#000000"/>
		<circle cx="370.244812" cy="329.558533" r="3.568624" transform="rotate(-90 370.245 329.559)" stroke="#000000"/>
		<circle cx="370.244812" cy="288.872253" r="4.068624" transform="rotate(-90 370.245 288.872)" fill="#312E2A"/>
		<circle cx="370.244812" cy="288.872253" r="3.568624" transform="rotate(-90 370.245 288.872)" stroke="#000000"/>
		<circle cx="370.244812" cy="288.872253" r="3.568624" transform="rotate(-90 370.245 288.872)" stroke="#000000"/>
		<circle cx="370.244812" cy="248.186188" r="4.068624" transform="rotate(-90 370.245 248.186)" fill="#312E2A"/>
		<circle cx="370.244812" cy="248.186188" r="3.568624" transform="rotate(-90 370.245 248.186)" stroke="#000000"/>
		<circle cx="370.244812" cy="248.186188" r="3.568624" transform="rotate(-90 370.245 248.186)" stroke="#000000"/>
		<circle cx="370.244812" cy="207.499786" r="4.068624" transform="rotate(-90 370.245 207.5)" fill="#312E2A"/>
		<circle cx="370.244812" cy="207.499786" r="3.568624" transform="rotate(-90 370.245 207.5)" stroke="#000000"/>
		<circle cx="370.244812" cy="207.499786" r="3.568624" transform="rotate(-90 370.245 207.5)" stroke="#000000"/>
		<circle cx="370.244812" cy="166.813507" r="4.068624" transform="rotate(-90 370.245 166.814)" fill="#312E2A"/>
		<circle cx="370.244812" cy="166.813507" r="3.568624" transform="rotate(-90 370.245 166.814)" stroke="#000000"/>
		<circle cx="370.244812" cy="166.813507" r="3.568624" transform="rotate(-90 370.245 166.814)" stroke="#000000"/>
		<circle cx="370.244812" cy="126.127167" r="4.068624" transform="rotate(-90 370.245 126.127)" fill="#312E2A"/>
		<circle cx="370.244812" cy="126.127167" r="3.568624" transform="rotate(-90 370.245 126.127)" stroke="#000000"/>
		<circle cx="370.244812" cy="126.127167" r="3.568624" transform="rotate(-90 370.245 126.127)" stroke="#000000"/>
		<circle cx="370.244812" cy="85.441055" r="4.068624" transform="rotate(-90 370.245 85.4411)" fill="#312E2A"/>
		<circle cx="370.244812" cy="85.441055" r="3.568624" transform="rotate(-90 370.245 85.4411)" stroke="#000000"/>
		<circle cx="370.244812" cy="85.441055" r="3.568624" transform="rotate(-90 370.245 85.4411)" stroke="#000000"/>
		<circle cx="370.244812" cy="44.754791" r="4.068624" transform="rotate(-90 370.245 44.7548)" fill="#312E2A"/>
		<circle cx="370.244812" cy="44.754791" r="3.568624" transform="rotate(-90 370.245 44.7548)" stroke="#000000"/>
		<circle cx="370.244812" cy="44.754791" r="3.568624" transform="rotate(-90 370.245 44.7548)" stroke="#000000"/>
		<circle cx="370.244812" cy="4.068634" r="4.068624" transform="rotate(-90 370.245 4.06863)" fill="#312E2A"/>
		<circle cx="370.244812" cy="4.068634" r="3.568624" transform="rotate(-90 370.245 4.06863)" stroke="#000000"/>
		<circle cx="370.244812" cy="4.068634" r="3.568624" transform="rotate(-90 370.245 4.06863)" stroke="#000000"/>
		<circle cx="410.931091" cy="410.931030" r="4.068624" transform="rotate(-90 410.931 410.931)" fill="#312E2A"/>
		<circle cx="410.931091" cy="410.931030" r="3.568624" transform="rotate(-90 410.931 410.931)" stroke="#000000"/>
		<circle cx="410.931091" cy="410.931030" r="3.568624" transform="rotate(-90 410.931 410.931)" stroke="#000000"/>
		<circle cx="410.931091" cy="370.244751" r="4.068624" transform="rotate(-90 410.931 370.245)" fill="#312E2A"/>
		<circle cx="410.931091" cy="370.244751" r="3.568624" transform="rotate(-90 410.931 370.245)" stroke="#000000"/>
		<circle cx="410.931091" cy="370.244751" r="3.568624" transform="rotate(-90 410.931 370.245)" stroke="#000000"/>
		<circle cx="410.931091" cy="329.558533" r="4.068624" transform="rotate(-90 410.931 329.559)" fill="#312E2A"/>
		<circle cx="410.931091" cy="329.558533" r="3.568624" transform="rotate(-90 410.931 329.559)" stroke="#000000"/>
		<circle cx="410.931091" cy="329.558533" r="3.568624" transform="rotate(-90 410.931 329.559)" stroke="#000000"/>
		<circle cx="410.931091" cy="288.872253" r="4.068624" transform="rotate(-90 410.931 288.872)" fill="#312E2A"/>
		<circle cx="410.931091" cy="288.872253" r="3.568624" transform="rotate(-90 410.931 288.872)" stroke="#000000"/>
		<circle cx="410.931091" cy="288.872253" r="3.568624" transform="rotate(-90 410.931 288.872)" stroke="#000000"/>
		<circle cx="410.931091" cy="248.186188" r="4.068624" transform="rotate(-90 410.931 248.186)" fill="#312E2A"/>
		<circle cx="410.931091" cy="248.186188" r="3.568624" transform="rotate(-90 410.931 248.186)" stroke="#000000"/>
		<circle cx="410.931091" cy="248.186188" r="3.568624" transform="rotate(-90 410.931 248.186)" stroke="#000000"/>
		<circle cx="410.931091" cy="207.499786" r="4.068624" transform="rotate(-90 410.931 207.5)" fill="#312E2A"/>
		<circle cx="410.931091" cy="207.499786" r="3.568624" transform="rotate(-90 410.931 207.5)" stroke="#000000"/>
		<circle cx="410.931091" cy="207.499786" r="3.568624" transform="rotate(-90 410.931 207.5)" stroke="#000000"/>
		<circle cx="410.931091" cy="166.813507" r="4.068624" transform="rotate(-90 410.931 166.814)" fill="#312E2A"/>
		<circle cx="410.931091" cy="166.813507" r="3.568624" transform="rotate(-90 410.931 166.814)" stroke="#000000"/>
		<circle cx="410.931091" cy="166.813507" r="3.568624" transform="rotate(-90 410.931 166.814)" stroke="#000000"/>
		<circle cx="410.931091" cy="126.127167" r="4.068624" transform="rotate(-90 410.931 126.127)" fill="#312E2A"/>
		<circle cx="410.931091" cy="126.127167" r="3.568624" transform="rotate(-90 410.931 126.127)" stroke="#000000"/>
		<circle cx="410.931091" cy="126.127167" r="3.568624" transform="rotate(-90 410.931 126.127)" stroke="#000000"/>
		<circle cx="410.931091" cy="85.441055" r="4.068624" transform="rotate(-90 410.931 85.4411)" fill="#312E2A"/>
		<circle cx="410.931091" cy="85.441055" r="3.568624" transform="rotate(-90 410.931 85.4411)" stroke="#000000"/>
		<circle cx="410.931091" cy="85.441055" r="3.568624" transform="rotate(-90 410.931 85.4411)" stroke="#000000"/>
		<circle cx="410.931091" cy="44.754791" r="4.068624" transform="rotate(-90 410.931 44.7548)" fill="#312E2A"/>
		<circle cx="410.931091" cy="44.754791" r="3.568624" transform="rotate(-90 410.931 44.7548)" stroke="#000000"/>
		<circle cx="410.931091" cy="44.754791" r="3.568624" transform="rotate(-90 410.931 44.7548)" stroke="#000000"/>
		<circle cx="410.931091" cy="4.068634" r="4.068624" transform="rotate(-90 410.931 4.06863)" fill="#312E2A"/>
		<circle cx="410.931091" cy="4.068634" r="3.568624" transform="rotate(-90 410.931 4.06863)" stroke="#000000"/>
		<circle cx="410.931091" cy="4.068634" r="3.568624" transform="rotate(-90 410.931 4.06863)" stroke="#000000"/>
	</g>
	<defs/>
</svg>
